<svg width="55" height="55" viewBox="0 0 55 55" fill="none" xmlns="http://www.w3.org/2000/svg">
<g clip-path="url(#clip0_935_1244)">
<path fill-rule="evenodd" clip-rule="evenodd" d="M27.8374 8.04907L29.5692 12.6106C29.6213 12.7478 29.7425 12.8358 29.889 12.843L34.7624 13.0805C34.9151 13.0879 35.0408 13.184 35.088 13.3294C35.1352 13.4747 35.0901 13.6264 34.9709 13.7221L31.1679 16.7788C31.0536 16.8707 31.0073 17.0132 31.0457 17.1547L32.3258 21.863C32.3658 22.0105 32.3133 22.1597 32.1897 22.2495C32.066 22.3393 31.9079 22.3432 31.78 22.2595L27.6976 19.5871C27.5749 19.5068 27.4251 19.5068 27.3024 19.5871L23.2202 22.2595C23.0923 22.3432 22.9341 22.3393 22.8106 22.2495C22.6869 22.1597 22.6344 22.0104 22.6745 21.863L23.9545 17.1547C23.993 17.0132 23.9467 16.8707 23.8324 16.7788L20.0293 13.7221C19.9102 13.6264 19.865 13.4747 19.9122 13.3294C19.9594 13.184 20.0852 13.088 20.2378 13.0805L25.1112 12.843C25.2577 12.8359 25.3789 12.7478 25.4309 12.6106L27.1628 8.04907C27.217 7.9062 27.3472 7.81639 27.5001 7.81639C27.6529 7.81639 27.7831 7.9062 27.8374 8.04907ZM18.3989 6.61402L21.4471 9.35876C21.7993 9.67576 22.3419 9.64718 22.6589 9.29495C22.9759 8.94271 22.9473 8.40012 22.5951 8.08312L19.5469 5.33838C19.1946 5.02138 18.6521 5.04996 18.335 5.40219C18.018 5.75443 18.0465 6.29702 18.3989 6.61402ZM35.4532 5.33838L32.3871 8.09913C32.0349 8.41613 32.0063 8.95872 32.3233 9.31095C32.6403 9.66319 33.1829 9.69176 33.5351 9.37476L36.6012 6.61402C36.9534 6.29702 36.982 5.75443 36.665 5.40219C36.3479 5.04996 35.8054 5.02138 35.4532 5.33838ZM28.3594 4.62414C28.3594 5.09873 27.9747 5.48351 27.5001 5.48351C27.0255 5.48351 26.6407 5.09873 26.6407 4.62414V1.47034C26.6407 0.995747 27.0255 0.610962 27.5001 0.610962C27.9747 0.610962 28.3594 0.995747 28.3594 1.47034V4.62414ZM27.5001 25.0169C30.83 25.0169 33.5296 27.7164 33.5296 31.0463C33.5296 34.3762 30.83 37.0757 27.5001 37.0757C24.1701 37.0757 21.4707 34.3762 21.4707 31.0463C21.4707 27.7163 24.1701 25.0169 27.5001 25.0169ZM39.3564 48.7919C38.7162 42.8094 33.6524 38.15 27.5001 38.15C21.3476 38.15 16.2838 42.8094 15.6436 48.792V51.2024C15.6436 52.9576 17.0752 54.3893 18.8305 54.3893H36.1696C37.9248 54.3893 39.3564 52.9576 39.3564 51.2024V48.7919ZM45.5199 29.3954C48.0111 29.3954 50.0306 31.415 50.0306 33.9062C50.0306 36.3974 48.0111 38.4169 45.5199 38.4169C43.0287 38.4169 41.0091 36.3974 41.0091 33.9062C41.009 31.415 43.0285 29.3954 45.5199 29.3954ZM9.48026 29.3954C11.9715 29.3954 13.991 31.415 13.991 33.9062C13.991 36.3974 11.9715 38.4169 9.48026 38.4169C6.98904 38.4169 4.96951 36.3974 4.96951 33.9062C4.96951 31.415 6.98904 29.3954 9.48026 29.3954ZM9.48016 39.6219C12.109 39.6219 14.4722 40.7588 16.105 42.5678C14.9527 44.3125 14.1886 46.3429 13.9424 48.5436H2.90433C2.23541 48.5436 1.65984 48.2528 1.26292 47.7144C0.865997 47.176 0.758468 46.5401 0.956339 45.9011C2.08266 42.2639 5.473 39.6219 9.48016 39.6219ZM45.5198 39.6219C49.5271 39.6219 52.9174 42.2639 54.0436 45.9011C54.2415 46.5401 54.1339 47.1759 53.737 47.7144C53.3401 48.2529 52.7646 48.5436 52.0956 48.5436H41.0576C40.8114 46.3429 40.0472 44.3126 38.895 42.5678C40.5279 40.7588 42.891 39.6219 45.5198 39.6219ZM8.80297 8.04907L10.5348 12.6106C10.5869 12.7478 10.7081 12.8358 10.8546 12.843L15.728 13.0805C15.8807 13.0879 16.0064 13.184 16.0536 13.3294C16.1008 13.4747 16.0557 13.6264 15.9365 13.7221L12.1335 16.7788C12.0192 16.8707 11.9729 17.0132 12.0113 17.1547L13.2914 21.863C13.3314 22.0105 13.2789 22.1597 13.1553 22.2495C13.0316 22.3393 12.8735 22.3432 12.7456 22.2595L8.66321 19.5871C8.54054 19.5068 8.39068 19.5068 8.26801 19.5871L4.18576 22.2595C4.05793 22.3432 3.8997 22.3393 3.77616 22.2495C3.65252 22.1597 3.59999 22.0104 3.64006 21.863L4.9201 17.1547C4.95856 17.0132 4.91226 16.8707 4.79796 16.7788L0.994903 13.722C0.875772 13.6263 0.830548 13.4746 0.877813 13.3293C0.924972 13.1839 1.05076 13.0879 1.20341 13.0804L6.07682 12.8429C6.22334 12.8358 6.34451 12.7477 6.3965 12.6105L8.12847 8.04907C8.18271 7.9062 8.31291 7.81639 8.46577 7.81639C8.61863 7.81639 8.74872 7.9062 8.80297 8.04907ZM46.8148 8.04907L48.5467 12.6106C48.5988 12.7478 48.72 12.8358 48.8665 12.843L53.7399 13.0805C53.8925 13.0879 54.0182 13.184 54.0655 13.3294C54.1127 13.4747 54.0675 13.6264 53.9484 13.7221L50.1453 16.7788C50.0311 16.8707 49.9848 17.0132 50.0232 17.1547L51.3033 21.863C51.3433 22.0105 51.2908 22.1597 51.1673 22.2495C51.0436 22.3393 50.8855 22.3432 50.7575 22.2595L46.6752 19.5871C46.5525 19.5068 46.4027 19.5068 46.28 19.5871L42.1977 22.2595C42.0699 22.3432 41.9117 22.3393 41.788 22.2495C41.6644 22.1597 41.6119 22.0104 41.6519 21.863L42.932 17.1547C42.9704 17.0132 42.9241 16.8707 42.8098 16.7788L39.0068 13.7221C38.8876 13.6264 38.8424 13.4747 38.8897 13.3294C38.9368 13.184 39.0626 13.088 39.2153 13.0805L44.0887 12.843C44.2352 12.8359 44.3564 12.7478 44.4084 12.6106L46.1402 8.04907C46.1945 7.9062 46.3247 7.81639 46.4775 7.81639C46.6304 7.81639 46.7606 7.9062 46.8148 8.04907Z" fill="#0046E6"/>
</g>
<defs>
<clipPath id="clip0_935_1244">
<rect width="55" height="55" fill="white"/>
</clipPath>
</defs>
</svg>
