<svg width="22" height="22" viewBox="0 0 22 22" fill="none" xmlns="http://www.w3.org/2000/svg">
<path d="M20.3003 0.54541H1.69961C1.39354 0.545534 1.10003 0.667177 0.883604 0.883604C0.667177 1.10003 0.545534 1.39354 0.54541 1.69961V20.3003C0.545534 20.6064 0.667177 20.8999 0.883604 21.1163C1.10003 21.3327 1.39354 21.4544 1.69961 21.4545H11V13.2402H8.50067V10.2532H11V7.87293C11 5.17248 12.8729 3.70231 15.2854 3.70231C16.4396 3.70231 17.6811 3.78912 17.9695 3.82739V6.64778H16.0475C14.7351 6.64778 14.485 7.26852 14.485 8.1833V10.2532H17.612L17.2036 13.2402H14.485V21.4545H20.3003C20.6064 21.4544 20.8999 21.3327 21.1163 21.1163C21.3327 20.8999 21.4544 20.6064 21.4545 20.3003V1.69961C21.4544 1.39354 21.3327 1.10003 21.1163 0.883604C20.8999 0.667177 20.6064 0.545534 20.3003 0.54541Z" fill="#0046E6"/>
</svg>
