<svg width="22" height="22" viewBox="0 0 22 22" fill="none" xmlns="http://www.w3.org/2000/svg">
<path d="M15.1568 2.18412C16.3027 2.18754 17.4006 2.64426 18.2109 3.45453C19.0212 4.26479 19.4779 5.36276 19.4813 6.50865V15.1568C19.4779 16.3027 19.0212 17.4006 18.2109 18.2109C17.4006 19.0212 16.3027 19.4779 15.1568 19.4813H6.50865C5.36276 19.4779 4.26479 19.0212 3.45453 18.2109C2.64426 17.4006 2.18754 16.3027 2.18412 15.1568V6.50865C2.18754 5.36276 2.64426 4.26479 3.45453 3.45453C4.26479 2.64426 5.36276 2.18754 6.50865 2.18412H15.1568ZM15.1568 0.45459H6.50865C3.17885 0.45459 0.45459 3.17885 0.45459 6.50865V15.1568C0.45459 18.4866 3.17885 21.2108 6.50865 21.2108H15.1568C18.4866 21.2108 21.2108 18.4866 21.2108 15.1568V6.50865C21.2108 3.17885 18.4866 0.45459 15.1568 0.45459Z" fill="#0046E6"/>
<path d="M16.454 6.50835C16.1974 6.50835 15.9466 6.43227 15.7333 6.28972C15.5199 6.14717 15.3537 5.94457 15.2555 5.70752C15.1573 5.47048 15.1316 5.20964 15.1817 4.958C15.2317 4.70636 15.3553 4.4752 15.5367 4.29378C15.7181 4.11235 15.9493 3.9888 16.2009 3.93875C16.4526 3.88869 16.7134 3.91438 16.9504 4.01257C17.1875 4.11075 17.3901 4.27703 17.5326 4.49036C17.6752 4.7037 17.7513 4.95451 17.7513 5.21108C17.7516 5.38155 17.7183 5.5504 17.6533 5.70796C17.5882 5.86552 17.4927 6.00867 17.3721 6.12921C17.2516 6.24974 17.1084 6.34528 16.9509 6.41035C16.7933 6.47541 16.6245 6.50871 16.454 6.50835Z" fill="#0046E6"/>
<path d="M10.8326 7.37309C11.5168 7.37309 12.1857 7.57598 12.7546 7.95612C13.3235 8.33626 13.767 8.87656 14.0288 9.50871C14.2906 10.1409 14.3592 10.8365 14.2257 11.5075C14.0922 12.1786 13.7627 12.795 13.2789 13.2789C12.795 13.7627 12.1786 14.0922 11.5075 14.2257C10.8365 14.3592 10.1409 14.2906 9.50871 14.0288C8.87657 13.767 8.33626 13.3235 7.95612 12.7546C7.57599 12.1857 7.37309 11.5168 7.37309 10.8326C7.37407 9.91539 7.73887 9.03602 8.38744 8.38744C9.03602 7.73887 9.91539 7.37407 10.8326 7.37309ZM10.8326 5.64355C9.80632 5.64355 8.80307 5.94789 7.94973 6.51807C7.09639 7.08825 6.4313 7.89867 6.03855 8.84685C5.6458 9.79502 5.54304 10.8384 5.74326 11.8449C5.94348 12.8515 6.43769 13.7761 7.1634 14.5018C7.8891 15.2275 8.8137 15.7217 9.82028 15.922C10.8269 16.1222 11.8702 16.0194 12.8184 15.6267C13.7666 15.2339 14.577 14.5688 15.1472 13.7155C15.7173 12.8622 16.0217 11.8589 16.0217 10.8326C16.0217 9.45639 15.475 8.13653 14.5018 7.1634C13.5287 6.19026 12.2088 5.64355 10.8326 5.64355Z" fill="#0046E6"/>
</svg>
