<svg width="234" height="43" viewBox="0 0 234 43" fill="none" xmlns="http://www.w3.org/2000/svg">
<g clip-path="url(#clip0_1014_3399)">
<path d="M42.0914 30.43C42.0893 32.915 41.3643 35.3436 40.0079 37.409C38.6515 39.4743 36.7246 41.0838 34.4707 42.034C32.2168 42.9843 29.7369 43.2326 27.3445 42.7477C24.9521 42.2628 22.7544 41.0664 21.0292 39.3097L3.47737 21.4294L3.3454 21.2882C1.18287 18.8812 0.0239154 15.7117 0.11354 12.45C0.203165 9.18829 1.53434 6.08988 3.82566 3.8098C6.11699 1.52973 9.18886 0.246683 12.3919 0.23191C15.5949 0.217137 18.6781 1.47179 20.9896 3.73064L21.0556 3.79786L38.4754 21.5437L38.5216 21.584C40.8123 23.9362 42.0957 27.1166 42.0914 30.43Z" fill="#0046E6"/>
<path d="M80.5865 21.5571V42.9933H59.5376L38.4952 21.5571V0.121002H59.5376L80.5865 21.5571Z" fill="#0046E6"/>
<path d="M122.678 21.5571V28.7025H108.656V43H101.629L80.5865 21.5571V0.121002H101.629L122.678 21.5571Z" fill="#0046E6"/>
<path d="M133.163 19.6548V0H146.591L150.174 3.64999V9.96858L146.591 13.6186H136.475V19.6683L133.163 19.6548ZM136.462 10.6408H145.007L146.855 8.73175V4.85993L145.007 2.9778H136.475L136.462 10.6408Z" fill="black"/>
<path d="M152.655 19.6548V16.9056H156.515V2.72237H152.655V0H163.681V2.72237H159.82V16.9056H163.681V19.6548H152.655Z" fill="black"/>
<path d="M167.923 19.6548V0H181.351L184.934 3.64999V9.96858L181.351 13.6186H171.236V19.6683L167.923 19.6548ZM171.223 10.6408H179.768L181.615 8.73175V4.85993L179.768 2.9778H171.236L171.223 10.6408Z" fill="black"/>
<path d="M189.065 19.6548V0H205.389V2.9778H192.377V8.31499H202.354V11.2054H192.377V16.677H205.66V19.6548H189.065Z" fill="black"/>
<path d="M133.163 43.0202V23.3452H138.679L144.083 35.8949H144.631L150.035 23.3452H155.492V43.0202H152.193V26.8876H151.764L146.333 39.471H142.308L136.917 26.8876H136.475V43.0202H133.163Z" fill="black"/>
<path d="M160.843 43.0202V23.3452H177.161V26.323H164.149V31.6601H174.126V34.5506H164.149V40.0222H177.438V43.0202H160.843Z" fill="black"/>
<path d="M186.287 43.0202V26.323H178.817V23.3452H197.069V26.323H189.593V43.0202H186.287Z" fill="black"/>
<path d="M208.392 23.3452L216.25 41.8774V43.0202H213.076L211.097 38.1669H200.836L198.857 43.0202H195.775V41.8774L203.548 23.3452H208.392ZM202.05 35.169H209.883L206.24 26.323H205.693L202.05 35.169Z" fill="black"/>
<path d="M219.556 43.0202V23.3452H222.855V40.0222H233.993V43.0202H219.556Z" fill="black"/>
</g>
<defs>
<clipPath id="clip0_1014_3399">
<rect width="234" height="43" fill="white"/>
</clipPath>
</defs>
</svg>
