<svg width="163" height="163" viewBox="0 0 163 163" fill="none" xmlns="http://www.w3.org/2000/svg">
<path d="M112.62 7.40378L14.7922 101.386L61.614 148.208C61.614 148.208 140.208 65.768 155.594 50.3797C157.962 44.3737 158.523 37.8068 157.209 31.4859C155.896 25.165 152.764 19.3657 148.199 14.8005C143.634 10.2353 137.835 7.10327 131.514 5.7892C125.193 4.47512 118.626 5.03631 112.62 7.40378Z" fill="#0046E6"/>
<path d="M131.184 5.72278L27.5266 105.991L65.5846 144.046C81.6808 127.176 142.281 63.6947 155.596 50.3797C157.378 45.8626 158.145 41.0091 157.842 36.1627C157.54 31.3164 156.176 26.5957 153.847 22.335C151.518 18.0743 148.281 14.3778 144.364 11.507C140.448 8.6363 135.949 6.66161 131.184 5.72278Z" fill="#2864EC"/>
<path d="M38.2031 157.906C56.4889 157.906 71.3125 143.083 71.3125 124.797C71.3125 106.511 56.4889 91.6875 38.2031 91.6875C19.9173 91.6875 5.09375 106.511 5.09375 124.797C5.09375 143.083 19.9173 157.906 38.2031 157.906Z" fill="#80A6FF"/>
<path d="M38.2031 147.719C50.8625 147.719 61.125 137.456 61.125 124.797C61.125 112.137 50.8625 101.875 38.2031 101.875C25.5437 101.875 15.2812 112.137 15.2812 124.797C15.2812 137.456 25.5437 147.719 38.2031 147.719Z" fill="#0046E6"/>
<path d="M38.2031 101.875C35.2408 101.876 32.3068 102.452 29.5641 103.571C25.8523 107.324 23.5495 112.243 23.0444 117.497C22.5394 122.751 23.8632 128.019 26.7922 132.41C29.7212 136.801 34.0759 140.047 39.1209 141.599C44.1659 143.151 49.592 142.914 54.4827 140.929C57.6666 137.715 59.8283 133.631 60.6954 129.191C61.5626 124.751 61.0965 120.153 59.3559 115.977C57.6152 111.802 54.6779 108.235 50.9137 105.725C47.1496 103.215 42.7271 101.876 38.2031 101.875Z" fill="#2864EC"/>
</svg>
