<svg width="224" height="31" viewBox="0 0 224 31" fill="none" xmlns="http://www.w3.org/2000/svg">
<path d="M1.296 10.88V13.504H0V9.68H1.2C2.13867 9.41333 2.608 7.97867 2.608 5.376V0.0799999H10.304V9.68H12.096V13.504H10.8V10.88H1.296ZM2.976 9.68H9.008V1.28H3.904V5.312C3.904 7.31733 3.59467 8.77333 2.976 9.68Z" fill="black"/>
<path d="M18.8616 5.664L14.3976 10.88H13.4056V3.68H14.5896V8.928L19.0376 3.68H20.0456V10.88H18.8616V5.664Z" fill="black"/>
<path d="M21.6143 9.04L22.7983 8.736C23.0969 9.51467 23.7422 9.904 24.7342 9.904C25.2996 9.904 25.7636 9.78667 26.1263 9.552C26.4996 9.30667 26.6863 9.008 26.6863 8.656C26.6863 8.368 26.5796 8.13333 26.3662 7.952C26.1529 7.76 25.8862 7.664 25.5662 7.664H23.8062V6.672H25.4862C25.7849 6.672 26.0356 6.58667 26.2383 6.416C26.4409 6.24533 26.5422 6.03733 26.5422 5.792C26.5422 5.46133 26.3716 5.18933 26.0303 4.976C25.6996 4.76267 25.2783 4.656 24.7663 4.656C23.7743 4.656 23.1343 5.04533 22.8463 5.824L21.6623 5.52C21.8863 4.89067 22.2756 4.4 22.8302 4.048C23.3956 3.696 24.0623 3.52 24.8302 3.52C25.6623 3.52 26.3609 3.72267 26.9263 4.128C27.4809 4.52267 27.7583 5.024 27.7583 5.632C27.7583 6.26133 27.4596 6.76267 26.8623 7.136C27.5556 7.52 27.9023 8.07467 27.9023 8.8C27.9023 9.42933 27.6036 9.96267 27.0063 10.4C26.4196 10.8267 25.6729 11.04 24.7663 11.04C23.9876 11.04 23.3209 10.864 22.7663 10.512C22.2116 10.16 21.8276 9.66933 21.6143 9.04Z" fill="black"/>
<path d="M32.6986 3.52C33.7546 3.52 34.624 3.904 35.3066 4.672V3.68H36.4746V10.88H35.3066V9.888C34.624 10.656 33.7546 11.04 32.6986 11.04C31.6853 11.04 30.8373 10.6827 30.1546 9.968C29.4826 9.25333 29.1466 8.35733 29.1466 7.28C29.1466 6.224 29.4826 5.33333 30.1546 4.608C30.848 3.88267 31.696 3.52 32.6986 3.52ZM34.5706 5.44C34.112 4.94933 33.5306 4.704 32.8266 4.704C32.1226 4.704 31.5413 4.94933 31.0826 5.44C30.6133 5.94133 30.3786 6.55467 30.3786 7.28C30.3786 8.00533 30.6133 8.61867 31.0826 9.12C31.5413 9.61067 32.1226 9.856 32.8266 9.856C33.5306 9.856 34.112 9.61067 34.5706 9.12C35.04 8.61867 35.2746 8.00533 35.2746 7.28C35.2746 6.55467 35.04 5.94133 34.5706 5.44Z" fill="black"/>
<path d="M38.4837 10.88V3.68H39.6678V8.928L44.1157 3.68H45.1237V10.88H43.9398V5.664L39.4757 10.88H38.4837ZM39.4118 0H40.4518C40.4518 0.352 40.5798 0.650667 40.8358 0.896C41.0918 1.13067 41.4118 1.248 41.7957 1.248C42.1691 1.248 42.4837 1.13067 42.7397 0.896C42.9958 0.650667 43.1237 0.352 43.1237 0H44.1637C44.1637 0.64 43.9344 1.17333 43.4757 1.6C43.0384 2.02667 42.4784 2.24 41.7957 2.24C41.1237 2.24 40.5584 2.02667 40.0998 1.6C39.6411 1.17333 39.4118 0.64 39.4118 0Z" fill="black"/>
<path d="M48.3084 7.776V10.88H47.1244V3.68H48.3084V6.656H52.5484V3.68H53.7324V10.88H52.5484V7.776H48.3084Z" fill="black"/>
<path d="M65.4241 5.664L60.9601 10.88H59.9681V3.68H61.1521V8.928L65.6001 3.68H66.6081V10.88H65.4241V5.664Z" fill="black"/>
<path d="M1.808 28.48H0.64V17.68H1.808V18.672C2.49067 17.904 3.36 17.52 4.416 17.52C5.42933 17.52 6.272 17.8827 6.944 18.608C7.62667 19.3227 7.968 20.2133 7.968 21.28C7.968 22.3573 7.62667 23.2533 6.944 23.968C6.272 24.6827 5.42933 25.04 4.416 25.04C3.36 25.04 2.49067 24.656 1.808 23.888V28.48ZM6.032 19.44C5.57333 18.9493 4.992 18.704 4.288 18.704C3.584 18.704 3.00267 18.9493 2.544 19.44C2.07467 19.9413 1.84 20.5547 1.84 21.28C1.84 22.0053 2.07467 22.6187 2.544 23.12C3.00267 23.6107 3.584 23.856 4.288 23.856C4.992 23.856 5.57333 23.6107 6.032 23.12C6.512 22.6293 6.752 22.016 6.752 21.28C6.752 20.544 6.512 19.9307 6.032 19.44Z" fill="black"/>
<path d="M12.7611 17.52C13.8171 17.52 14.6865 17.904 15.3691 18.672V17.68H16.5371V24.88H15.3691V23.888C14.6865 24.656 13.8171 25.04 12.7611 25.04C11.7478 25.04 10.8998 24.6827 10.2171 23.968C9.54513 23.2533 9.20912 22.3573 9.20912 21.28C9.20912 20.224 9.54513 19.3333 10.2171 18.608C10.9105 17.8827 11.7585 17.52 12.7611 17.52ZM14.6331 19.44C14.1745 18.9493 13.5931 18.704 12.8891 18.704C12.1851 18.704 11.6038 18.9493 11.1451 19.44C10.6758 19.9413 10.4411 20.5547 10.4411 21.28C10.4411 22.0053 10.6758 22.6187 11.1451 23.12C11.6038 23.6107 12.1851 23.856 12.8891 23.856C13.5931 23.856 14.1745 23.6107 14.6331 23.12C15.1025 22.6187 15.3371 22.0053 15.3371 21.28C15.3371 20.5547 15.1025 19.9413 14.6331 19.44Z" fill="black"/>
<path d="M18.1143 23.04L19.2983 22.736C19.5969 23.5147 20.2422 23.904 21.2342 23.904C21.7996 23.904 22.2636 23.7867 22.6263 23.552C22.9996 23.3067 23.1863 23.008 23.1863 22.656C23.1863 22.368 23.0796 22.1333 22.8662 21.952C22.6529 21.76 22.3862 21.664 22.0662 21.664H20.3062V20.672H21.9862C22.2849 20.672 22.5356 20.5867 22.7383 20.416C22.9409 20.2453 23.0422 20.0373 23.0422 19.792C23.0422 19.4613 22.8716 19.1893 22.5303 18.976C22.1996 18.7627 21.7783 18.656 21.2663 18.656C20.2743 18.656 19.6343 19.0453 19.3463 19.824L18.1623 19.52C18.3863 18.8907 18.7756 18.4 19.3302 18.048C19.8956 17.696 20.5623 17.52 21.3302 17.52C22.1623 17.52 22.8609 17.7227 23.4263 18.128C23.9809 18.5227 24.2583 19.024 24.2583 19.632C24.2583 20.2613 23.9596 20.7627 23.3623 21.136C24.0556 21.52 24.4023 22.0747 24.4023 22.8C24.4023 23.4293 24.1036 23.9627 23.5063 24.4C22.9196 24.8267 22.1729 25.04 21.2663 25.04C20.4876 25.04 19.8209 24.864 19.2663 24.512C18.7116 24.16 18.3276 23.6693 18.1143 23.04Z" fill="black"/>
<path d="M27.1986 28.48H26.0306V17.68H27.1986V18.672C27.8813 17.904 28.7506 17.52 29.8066 17.52C30.82 17.52 31.6626 17.8827 32.3346 18.608C33.0173 19.3227 33.3586 20.2133 33.3586 21.28C33.3586 22.3573 33.0173 23.2533 32.3346 23.968C31.6626 24.6827 30.82 25.04 29.8066 25.04C28.7506 25.04 27.8813 24.656 27.1986 23.888V28.48ZM31.4226 19.44C30.964 18.9493 30.3826 18.704 29.6786 18.704C28.9746 18.704 28.3933 18.9493 27.9346 19.44C27.4653 19.9413 27.2306 20.5547 27.2306 21.28C27.2306 22.0053 27.4653 22.6187 27.9346 23.12C28.3933 23.6107 28.9746 23.856 29.6786 23.856C30.3826 23.856 30.964 23.6107 31.4226 23.12C31.9026 22.6293 32.1426 22.016 32.1426 21.28C32.1426 20.544 31.9026 19.9307 31.4226 19.44Z" fill="black"/>
<path d="M38.1517 17.52C39.2077 17.52 40.0771 17.904 40.7598 18.672V17.68H41.9277V24.88H40.7598V23.888C40.0771 24.656 39.2077 25.04 38.1517 25.04C37.1384 25.04 36.2904 24.6827 35.6077 23.968C34.9357 23.2533 34.5998 22.3573 34.5998 21.28C34.5998 20.224 34.9357 19.3333 35.6077 18.608C36.3011 17.8827 37.1491 17.52 38.1517 17.52ZM40.0238 19.44C39.5651 18.9493 38.9837 18.704 38.2798 18.704C37.5758 18.704 36.9944 18.9493 36.5358 19.44C36.0664 19.9413 35.8317 20.5547 35.8317 21.28C35.8317 22.0053 36.0664 22.6187 36.5358 23.12C36.9944 23.6107 37.5758 23.856 38.2798 23.856C38.9837 23.856 39.5651 23.6107 40.0238 23.12C40.4931 22.6187 40.7277 22.0053 40.7277 21.28C40.7277 20.5547 40.4931 19.9413 40.0238 19.44Z" fill="black"/>
<path d="M43.6009 19.472C43.6009 17.8613 43.9315 16.6293 44.5929 15.776C45.2649 14.9227 46.2675 14.4107 47.6009 14.24C48.9129 14.048 49.7075 13.696 49.9849 13.184L50.5289 13.872C50.4115 14.2347 50.0915 14.5493 49.5689 14.816C49.0462 15.0933 48.4862 15.28 47.8889 15.376C46.7902 15.536 45.9955 15.952 45.5049 16.624C45.0142 17.2853 44.7795 18.2453 44.8009 19.504C45.0035 18.9067 45.3609 18.4267 45.8729 18.064C46.3955 17.7013 47.0035 17.52 47.6969 17.52C48.7209 17.52 49.5849 17.8827 50.2889 18.608C50.9929 19.3333 51.3449 20.2293 51.3449 21.296C51.3449 22.3627 50.9929 23.2533 50.2889 23.968C49.5849 24.6827 48.7049 25.04 47.6489 25.04C46.4862 25.04 45.5209 24.576 44.7529 23.648C43.9849 22.6987 43.6009 21.3067 43.6009 19.472ZM47.6649 23.856C48.3689 23.856 48.9502 23.6107 49.4089 23.12C49.8782 22.6187 50.1129 22.0053 50.1129 21.28C50.1129 20.5547 49.8782 19.9413 49.4089 19.44C48.9502 18.9493 48.3689 18.704 47.6649 18.704C46.9502 18.704 46.3635 18.9493 45.9049 19.44C45.4355 19.9413 45.2009 20.5547 45.2009 21.28C45.2009 22.0053 45.4355 22.6187 45.9049 23.12C46.3635 23.6107 46.9502 23.856 47.6649 23.856Z" fill="black"/>
<path d="M56.3597 25.04C55.2824 25.04 54.3864 24.6827 53.6717 23.968C52.9571 23.2533 52.5998 22.3573 52.5998 21.28C52.5998 20.2027 52.9571 19.3067 53.6717 18.592C54.3864 17.8773 55.2824 17.52 56.3597 17.52C57.4264 17.52 58.3171 17.8773 59.0317 18.592C59.7571 19.3173 60.1198 20.2133 60.1198 21.28C60.1198 22.3467 59.7571 23.2427 59.0317 23.968C58.3171 24.6827 57.4264 25.04 56.3597 25.04ZM56.3597 18.704C55.6344 18.704 55.0317 18.9493 54.5518 19.44C54.0718 19.9307 53.8317 20.544 53.8317 21.28C53.8317 22.016 54.0718 22.6293 54.5518 23.12C55.0317 23.6107 55.6344 23.856 56.3597 23.856C57.0851 23.856 57.6878 23.6107 58.1678 23.12C58.6478 22.6293 58.8877 22.016 58.8877 21.28C58.8877 20.544 58.6478 19.9307 58.1678 19.44C57.6878 18.9493 57.0851 18.704 56.3597 18.704Z" fill="black"/>
<path d="M63.5291 24.88V18.816H60.8411V17.68H67.3851V18.816H64.6971V24.88H63.5291Z" fill="black"/>
<path d="M74.6556 24.88H73.1996L69.9516 21.152L72.8956 17.68H74.3516L71.4076 21.152L74.6556 24.88ZM69.8396 17.68V24.88H68.6556V17.68H69.8396Z" fill="black"/>
<path d="M78.7142 17.52C79.7702 17.52 80.6396 17.904 81.3223 18.672V17.68H82.4902V24.88H81.3223V23.888C80.6396 24.656 79.7702 25.04 78.7142 25.04C77.7009 25.04 76.8529 24.6827 76.1703 23.968C75.4983 23.2533 75.1622 22.3573 75.1622 21.28C75.1622 20.224 75.4983 19.3333 76.1703 18.608C76.8636 17.8827 77.7116 17.52 78.7142 17.52ZM80.5863 19.44C80.1276 18.9493 79.5463 18.704 78.8423 18.704C78.1383 18.704 77.5569 18.9493 77.0983 19.44C76.6289 19.9413 76.3943 20.5547 76.3943 21.28C76.3943 22.0053 76.6289 22.6187 77.0983 23.12C77.5569 23.6107 78.1383 23.856 78.8423 23.856C79.5463 23.856 80.1276 23.6107 80.5863 23.12C81.0556 22.6187 81.2903 22.0053 81.2903 21.28C81.2903 20.5547 81.0556 19.9413 80.5863 19.44Z" fill="black"/>
<g clip-path="url(#clip0_917_405)">
<path d="M98.9618 17.4242C99.4058 18.1209 100.072 18.7306 101.004 19.166C101.892 19.6015 102.869 19.8192 103.934 19.8192C104.467 19.8192 105 19.7757 105.488 19.645C105.977 19.5144 106.376 19.3402 106.776 19.1225C107.131 18.9048 107.442 18.6435 107.619 18.3387C107.841 18.0338 107.93 17.729 107.93 17.3807C107.93 16.8581 107.664 16.3791 107.087 16.0307C106.509 15.6824 105.799 15.334 104.911 15.0292C104.023 14.7244 103.091 14.4195 102.114 14.1147C101.093 13.8099 100.161 13.418 99.317 12.9825C98.429 12.5035 97.7186 11.981 97.1414 11.2842C96.5643 10.631 96.2979 9.76013 96.2979 8.75858C96.2979 7.9312 96.5199 7.14738 96.9195 6.4071C97.319 5.71037 97.8962 5.05718 98.6066 4.53463C99.2282 4.01208 100.072 3.62016 101.048 3.31534C102.025 3.01052 103.091 2.87988 104.245 2.87988C106.11 2.87988 107.753 3.2718 109.218 4.01208C110.638 4.75236 111.615 5.79746 112.148 7.06029L109.129 8.80212C108.774 8.10539 108.197 7.58284 107.353 7.19092C106.554 6.79901 105.577 6.62483 104.512 6.62483C103.402 6.62483 102.514 6.79901 101.803 7.19092C101.093 7.58284 100.738 8.06184 100.693 8.62794C100.693 9.0634 101.004 9.41176 101.581 9.71659C102.158 10.0214 102.913 10.2827 103.757 10.5875C104.645 10.8488 105.577 11.1536 106.598 11.502C107.619 11.8068 108.552 12.2422 109.44 12.7213C110.328 13.2003 111.038 13.8099 111.615 14.5502C112.192 15.2905 112.503 16.2049 112.503 17.2936C112.503 18.1645 112.281 19.0354 111.882 19.8192C111.438 20.6031 110.86 21.2562 110.106 21.8659C109.351 22.432 108.463 22.8674 107.442 23.2158C106.421 23.5206 105.311 23.6948 104.068 23.6948C102.203 23.6948 100.516 23.3029 99.0506 22.5626C97.5854 21.7788 96.4755 20.7337 95.7207 19.4273L98.9618 17.4242Z" fill="black"/>
<path d="M128.176 23.564C126.888 23.564 125.689 23.3463 124.535 22.8673C123.425 22.3883 122.448 21.6915 121.605 20.7771V30.8797H117.076V3.35871H121.649V5.79728C122.537 4.83927 123.514 4.14254 124.668 3.66353C125.778 3.18453 126.977 2.9668 128.22 2.9668C129.597 2.9668 130.884 3.22807 132.083 3.79417C133.282 4.36027 134.347 5.10055 135.279 6.01501C136.212 6.97302 136.922 8.06167 137.455 9.3245C137.988 10.5873 138.254 11.9372 138.254 13.3743C138.254 14.7677 137.988 16.0741 137.455 17.3369C136.922 18.5562 136.212 19.6449 135.324 20.6029C134.436 21.5173 133.37 22.2576 132.127 22.7802C130.884 23.3027 129.597 23.564 128.176 23.564ZM121.649 13.2436C121.649 14.1145 121.827 14.8984 122.138 15.6822C122.448 16.4225 122.892 17.0757 123.425 17.6418C123.958 18.2079 124.624 18.6433 125.334 18.9481C126.045 19.253 126.844 19.4271 127.687 19.4271C128.531 19.4271 129.33 19.253 130.085 18.9481C130.795 18.6433 131.461 18.2079 131.994 17.6418C132.527 17.0757 132.971 16.4225 133.282 15.6386C133.592 14.8548 133.77 14.071 133.77 13.2001C133.77 12.3292 133.637 11.5453 133.326 10.7615C133.015 10.0212 132.616 9.36804 132.083 8.80195C131.55 8.23585 130.928 7.84394 130.174 7.53911C129.463 7.23429 128.664 7.06011 127.776 7.06011C126.933 7.06011 126.133 7.23429 125.379 7.53911C124.624 7.84394 124.002 8.27939 123.47 8.84549C122.937 9.41159 122.493 10.0648 122.182 10.8051C121.782 11.5453 121.649 12.3727 121.649 13.2436Z" fill="black"/>
<path d="M151.218 2.9668C152.505 2.9668 153.704 3.18453 154.858 3.66353C155.968 4.14254 156.945 4.83927 157.789 5.75373V3.31516H162.362V23.2156H157.789V20.7335C156.901 21.6915 155.924 22.3883 154.769 22.8673C153.659 23.3463 152.461 23.6075 151.218 23.6075C149.886 23.6075 148.598 23.3463 147.355 22.7802C146.112 22.2141 145.046 21.4738 144.158 20.5158C143.226 19.5578 142.516 18.4691 141.983 17.2063C141.45 15.9435 141.184 14.5935 141.184 13.1565C141.184 11.7631 141.45 10.4567 141.983 9.19386C142.516 7.97457 143.226 6.88593 144.158 5.92792C145.046 5.01345 146.112 4.27317 147.355 3.75062C148.554 3.22807 149.841 2.9668 151.218 2.9668ZM157.789 13.2872C157.789 12.4163 157.611 11.6324 157.3 10.8486C156.989 10.1083 156.545 9.45513 156.013 8.88904C155.48 8.32294 154.814 7.88748 154.103 7.58266C153.393 7.27784 152.594 7.10366 151.75 7.10366C150.907 7.10366 150.108 7.27784 149.353 7.58266C148.642 7.88748 147.977 8.32294 147.444 8.88904C146.911 9.45513 146.467 10.1083 146.156 10.8486C145.845 11.5889 145.668 12.4163 145.668 13.3307C145.668 14.2016 145.801 15.029 146.112 15.7693C146.423 16.5096 146.822 17.1628 147.355 17.7288C147.888 18.2949 148.509 18.6869 149.264 18.9917C149.974 19.2965 150.774 19.4707 151.662 19.4707C152.55 19.4707 153.304 19.2965 154.059 18.9917C154.814 18.6869 155.435 18.2514 155.968 17.6853C156.501 17.1192 156.945 16.466 157.256 15.7257C157.611 14.9419 157.789 14.1581 157.789 13.2872Z" fill="black"/>
<path d="M181.941 9.62989C181.363 8.84607 180.609 8.23642 179.721 7.75742C178.833 7.27842 177.856 7.06069 176.924 7.06069C176.125 7.06069 175.37 7.23487 174.615 7.53969C173.905 7.88806 173.239 8.32352 172.706 8.88961C172.173 9.45571 171.729 10.1089 171.418 10.8927C171.108 11.633 170.93 12.4604 170.93 13.2877C170.93 14.1151 171.108 14.9425 171.418 15.6828C171.729 16.423 172.173 17.0762 172.706 17.6423C173.239 18.2084 173.905 18.6439 174.615 18.9487C175.37 19.2535 176.169 19.4277 177.012 19.4277C177.989 19.4277 178.877 19.21 179.721 18.8181C180.564 18.3826 181.319 17.773 181.896 16.9456L184.871 19.8196C182.695 22.3017 180.076 23.5646 176.924 23.5646C175.459 23.5646 174.038 23.3033 172.75 22.7808C171.463 22.2582 170.353 21.5179 169.376 20.6035C168.399 19.689 167.644 18.6003 167.112 17.3375C166.579 16.0747 166.312 14.7683 166.312 13.3313C166.312 11.8943 166.579 10.5444 167.112 9.28153C167.644 8.0187 168.399 6.93005 169.332 5.97204C170.264 5.01403 171.418 4.27375 172.706 3.7512C173.993 3.1851 175.37 2.92383 176.835 2.92383C178.389 2.92383 179.854 3.22865 181.23 3.88184C182.607 4.53503 183.805 5.44949 184.871 6.66877L181.941 9.62989Z" fill="black"/>
<path d="M205.872 19.9497C205.028 21.0383 203.918 21.9093 202.453 22.5624C201.033 23.2156 199.479 23.5205 197.88 23.5205C196.46 23.5205 195.083 23.2592 193.84 22.7366C192.553 22.2141 191.443 21.4738 190.466 20.5158C189.489 19.5578 188.734 18.4691 188.202 17.2063C187.669 15.9435 187.402 14.6371 187.402 13.2001C187.402 11.7631 187.669 10.4567 188.246 9.19386C188.823 7.97457 189.578 6.88593 190.555 5.92792C191.531 5.01345 192.686 4.27317 193.973 3.75062C195.261 3.22807 196.682 2.9668 198.147 2.9668C199.745 2.9668 201.255 3.27162 202.587 3.92481C203.918 4.53445 205.073 5.40537 206.005 6.49401C206.938 7.58266 207.648 8.84549 208.092 10.3261C208.58 11.8066 208.713 13.4178 208.58 15.1161H192.419C192.597 15.7693 192.819 16.3354 193.219 16.8579C193.574 17.3805 194.018 17.8595 194.55 18.2514C195.083 18.6433 195.66 18.9481 196.326 19.1659C196.992 19.3836 197.658 19.4707 198.369 19.4707C199.345 19.4707 200.278 19.253 201.077 18.861C201.876 18.4691 202.587 17.8595 203.208 17.1192L205.872 19.9497ZM203.696 11.4582C203.341 10.1519 202.631 9.10677 201.61 8.27939C200.589 7.45202 199.39 7.06011 198.014 7.06011C196.682 7.06011 195.527 7.45202 194.506 8.23585C193.485 9.01967 192.775 10.1083 192.331 11.4582H203.696Z" fill="black"/>
<path d="M219.547 23.5644C221.827 23.5644 223.676 21.7512 223.676 19.5146C223.676 17.278 221.827 15.4648 219.547 15.4648C217.267 15.4648 215.418 17.278 215.418 19.5146C215.418 21.7512 217.267 23.5644 219.547 23.5644Z" fill="#FF0000"/>
</g>
<defs>
<clipPath id="clip0_917_405">
<rect width="128" height="28" fill="white" transform="translate(95.6328 2.87988)"/>
</clipPath>
</defs>
</svg>
