<svg width="22" height="22" viewBox="0 0 22 22" fill="none" xmlns="http://www.w3.org/2000/svg">
<path d="M21.128 0.873416C20.9753 0.720736 20.7817 0.615451 20.5705 0.570238C20.3594 0.525025 20.1396 0.54181 19.9378 0.618574L1.26719 7.68554H1.26345C1.04818 7.76834 0.86371 7.91558 0.735245 8.10714C0.606779 8.29871 0.540579 8.52526 0.545685 8.75586C0.550791 8.98646 0.626955 9.20986 0.763774 9.39555C0.900593 9.58124 1.0914 9.72017 1.31012 9.79335L1.32926 9.79942L7.73747 12.5359C7.86246 12.5739 7.99521 12.5784 8.12248 12.549C8.24975 12.5196 8.36709 12.4573 8.46277 12.3684L18.7476 2.78473C18.7783 2.75408 18.8147 2.72977 18.8547 2.71319C18.8947 2.6966 18.9377 2.68807 18.981 2.68807C19.0243 2.68807 19.0673 2.6966 19.1073 2.71319C19.1473 2.72977 19.1837 2.75408 19.2144 2.78473C19.245 2.81538 19.2693 2.85176 19.2859 2.8918C19.3025 2.93185 19.311 2.97476 19.311 3.0181C19.311 3.06144 19.3025 3.10436 19.2859 3.1444C19.2693 3.18444 19.245 3.22083 19.2144 3.25148L9.63053 13.532C9.5416 13.6277 9.47933 13.745 9.44993 13.8723C9.42053 13.9995 9.42503 14.1323 9.46297 14.2573L12.2003 20.6694C12.2031 20.6788 12.2059 20.6872 12.2092 20.696C12.3586 21.1287 12.7366 21.4339 13.1935 21.4545H13.2402C13.4709 21.4558 13.6966 21.3877 13.8881 21.259C14.0795 21.1303 14.2278 20.947 14.3137 20.7329L21.3795 2.06688C21.4574 1.86491 21.4751 1.64471 21.4304 1.43291C21.3858 1.2211 21.2807 1.02677 21.128 0.873416Z" fill="#0046E6"/>
</svg>
