<svg width="31" height="22" viewBox="0 0 31 22" fill="none" xmlns="http://www.w3.org/2000/svg">
<path d="M30.2632 3.81052C29.9077 2.52529 28.8605 1.51322 27.5305 1.16974C25.1201 0.5455 15.4545 0.5455 15.4545 0.5455C15.4545 0.5455 5.78901 0.5455 3.37856 1.16974C2.04871 1.51322 1.00131 2.52529 0.645882 3.81052C0 6.13991 0 11 0 11C0 11 0 15.8601 0.645882 18.1897C1.00131 19.4748 2.04871 20.4869 3.37856 20.8305C5.78901 21.4546 15.4545 21.4546 15.4545 21.4546C15.4545 21.4546 25.1201 21.4546 27.5305 20.8305C28.8605 20.4869 29.9077 19.4748 30.2632 18.1897C30.9091 15.8601 30.9091 11 30.9091 11C30.9091 11 30.9091 6.13991 30.2632 3.81052Z" fill="#0046E6"/>
<path d="M12.2935 15.4128L20.372 11.0004L12.2935 6.5876V15.4128Z" fill="white"/>
</svg>
